<?xml version="1.0" encoding="UTF-8" standalone="no"?>
<!-- Created with Inkscape (http://www.inkscape.org/) -->

<svg
   width="130mm"
   height="77mm"
   viewBox="0 0 130 77"
   version="1.1"
   id="svg1"
   inkscape:version="1.3.2 (091e20e, 2023-11-25, custom)"
   xml:space="preserve"
   sodipodi:docname="territory template.svg"
   inkscape:export-filename="..\235.jpg"
   inkscape:export-xdpi="300"
   inkscape:export-ydpi="300"
   xmlns:inkscape="http://www.inkscape.org/namespaces/inkscape"
   xmlns:sodipodi="http://sodipodi.sourceforge.net/DTD/sodipodi-0.dtd"
   xmlns="http://www.w3.org/2000/svg"
   xmlns:svg="http://www.w3.org/2000/svg"
   xmlns:rdf="http://www.w3.org/1999/02/22-rdf-syntax-ns#"
   xmlns:cc="http://creativecommons.org/ns#"
   xmlns:dc="http://purl.org/dc/elements/1.1/"><defs
     id="defs1" /><sodipodi:namedview
     id="base"
     pagecolor="#ffffff"
     bordercolor="#000000"
     borderopacity="0.3"
     inkscape:pageopacity="0.0"
     inkscape:pageshadow="2"
     inkscape:zoom="3.959798"
     inkscape:cx="263.90235"
     inkscape:cy="167.68532"
     inkscape:document-units="mm"
     inkscape:showpageshadow="2"
     inkscape:pagecheckerboard="0"
     inkscape:deskcolor="#d1d1d1"
     inkscape:window-width="3840"
     inkscape:window-height="2054"
     inkscape:window-x="-11"
     inkscape:window-y="-11"
     inkscape:window-maximized="1"
     inkscape:current-layer="svg1" /><metadata
     id="metadata1"><rdf:RDF><cc:Work
         rdf:about=""><dc:format>image/svg+xml</dc:format><dc:type
           rdf:resource="http://purl.org/dc/dcmitype/StillImage" /></cc:Work></rdf:RDF></metadata><text
     xml:space="preserve"
     style="font-size:4.92511px;font-family:Arial;-inkscape-font-specification:Arial;text-align:center;text-anchor:middle;fill:#000000;stroke:#000000;stroke-width:0.1;stroke-dasharray:none"
     x="46.720814"
     y="-78.659294"
     id="text1"
     transform="rotate(80.767597)"><tspan
       sodipodi:role="line"
       id="tspan1"
       style="stroke-width:0.1"
       x="46.720814"
       y="-78.659294">9th Line</tspan></text><g
     id="g8"
     transform="translate(-5.957509,2.343613)"><rect
       style="fill:#ffffff;stroke:none;stroke-width:5.2832"
       id="rect7"
       width="23.126368"
       height="13.75266"
       x="103.52128"
       y="9.1684408"
       ry="5.0631685" /><text
       xml:space="preserve"
       style="font-size:8.21637px;font-family:sans-serif;-inkscape-font-specification:'sans-serif, Normal';text-align:center;text-anchor:middle;fill:#000000;stroke:#000000;stroke-width:0.667304;stroke-dasharray:none"
       x="114.9641"
       y="18.979475"
       id="text8"><tspan
         sodipodi:role="line"
         id="tspan8"
         style="fill:#000000;stroke-width:0.667304;stroke-dasharray:none"
         x="114.9641"
         y="18.979475">235</tspan></text><g
       id="g1"
       transform="translate(11.754296,-2.7443092)"><g
         id="g2"
         transform="translate(5.5057683,0.49160475)"><rect
           style="fill:#f9f9f9;stroke:none;stroke-width:0.1"
           id="rect1"
           width="12.84244"
           height="18.32188"
           x="6.1072936"
           y="55.87888"
           ry="5.0631685" /><path
           d="m 12.544855,57.998167 c -0.01444,-0.0172 -1.134355,2.32171 -2.487774,5.19752 -2.4364097,5.17707 -2.4586827,5.22964 -2.3712577,5.30707 0.04858,0.043 0.105418,0.0727 0.1261,0.0658 0.02068,-0.007 1.078354,-1.1194 2.3506507,-2.47126 1.272296,-1.35186 2.328226,-2.46702 2.346559,-2.47808 0.01833,-0.0111 1.082172,1.09596 2.364288,2.45899 1.282115,1.36303 2.351711,2.48217 2.378076,2.48777 0.02636,0.006 0.08435,-0.018 0.12884,-0.0521 0.07632,-0.0584 -0.05688,-0.35551 -2.364288,-5.27283 -1.34504,-2.86642 -2.456865,-5.22555 -2.471259,-5.24267 z m -0.04112,0.64693 c 0.02107,-0.0233 0.03701,0.96832 0.03701,2.24792 v 2.28899 l -2.15595,2.29307 c -1.8880657,2.00701 -2.1789807,2.31611 -2.1985267,2.32595 0.0021,-0.005 0.01522,-0.0238 0.02056,-0.0343 0.01228,-0.0241 0.975973,-2.07686 2.1409497,-4.56145 1.164976,-2.4846 2.135343,-4.53721 2.15595,-4.56009 z m -1.511816,9.72746 v 3.70901 h 0.486569 v -3.10309 l 1.644728,3.10309 h 0.675726 v -3.70901 h -0.48657 v 3.10309 l -1.644728,-3.10309 z"
           id="path1-0"
           style="stroke-width:0.0151518" /></g></g><path
       style="fill:none;stroke:#ffff00;stroke-width:1.4"
       d="M 84.467932,3.8704035 95.960523,68.081908"
       id="path1"
       sodipodi:nodetypes="cc" /></g><text
     xml:space="preserve"
     style="font-size:4.92511px;line-height:0px;font-family:Arial;-inkscape-font-specification:Arial;text-align:center;text-anchor:middle;fill:none;stroke:#ffff00;stroke-width:1.4"
     x="46.43808"
     y="41.894501"
     id="text9"><tspan
       sodipodi:role="line"
       id="tspan9"
       style="stroke-width:1.4" /></text></svg>
