<?xml version="1.0" encoding="UTF-8" standalone="no"?>
<svg version="1.1" xmlns="http://www.w3.org/2000/svg" xmlns:xlink="http://www.w3.org/1999/xlink" width="704.64" height="733.44">
	<defs>
		<clipPath id="clip_dp_001" clipPathUnits="userSpaceOnUse" clip-rule="nonzero">
			<path d="M 0,0 L 704.667,0 L 704.667,733.333 L 0,733.333 Z " clip-rule="nonzero"/>
		</clipPath>
	</defs>
	<g id="dp_dp001" clip-path="url(#clip_dp_001)">
		<g id="clip">
			<image id="dp_image002" transform="matrix(1,0,0,1,0,1)" fill="none" x="0" y="0" width="704.667" height="733.333" xlink:href="DrawE0B8_images/DrawE0B8_001.png"/>
			<path id="dp_path003" fill="yellow" fill-rule="evenodd" stroke="none" stroke-width="0" d="M 251.689,608.204 L 251.849,607.724 L 255.689,607.724 L 255.849,607.084 L 257.609,606.924 L 257.609,598.924 L 256.969,598.764 L 256.969,594.283 L 256.329,594.123 L 256.329,589.003 L 255.689,588.843 L 255.689,583.723 L 255.049,583.563 L 255.049,578.923 L 254.409,578.763 L 254.409,573.641 L 253.609,573.481 L 253.609,568.361 L 252.969,568.201 L 252.969,563.721 L 252.329,563.561 L 252.329,558.28 L 251.689,558.12 L 251.689,553 L 251.049,552.84 L 251.049,551.08 L 251.689,550.76 L 251.849,550.28 L 255.689,550.28 L 255.849,549.64 L 259.689,549.64 L 259.849,549 L 263.689,549 L 263.849,548.36 L 267.691,548.36 L 267.851,547.72 L 271.051,547.72 L 271.211,546.92 L 275.051,546.92 L 275.211,546.28 L 279.051,546.28 L 279.211,545.64 L 283.051,545.64 L 283.211,545 L 287.051,545 L 287.211,544.36 L 291.051,544.36 L 291.211,543.72 L 294.411,543.72 L 294.571,542.92 L 297.771,542.92 L 298.411,542.76 L 298.571,542.28 L 301.612,542.28 L 301.772,541.64 L 304.332,541.64 L 304.492,541 L 307.052,541 L 307.212,540.359 L 308.972,540.359 L 309.132,539.719 L 311.692,539.719 L 311.532,538.919 L 307.052,538.919 L 306.892,539.719 L 304.972,539.719 L 304.812,540.359 L 302.412,540.359 L 302.252,539.719 L 301.612,539.879 L 301.452,540.359 L 300.332,540.519 L 300.172,541 L 296.331,541 L 296.171,540.359 L 294.891,540.519 L 295.051,542.12 L 293.771,542.28 L 290.411,542.28 L 290.251,542.92 L 286.411,542.92 L 286.251,543.72 L 281.771,543.72 L 281.451,542.92 L 280.331,543.08 L 280.171,543.72 L 279.691,543.88 L 279.531,545 L 276.331,545 L 276.171,545.64 L 274.411,545.64 L 274.251,545 L 273.611,544.84 L 273.451,544.36 L 272.331,544.2 L 272.331,542.28 L 271.691,542.12 L 271.691,538.919 L 268.331,538.919 L 268.171,539.719 L 264.331,539.719 L 264.169,540.359 L 260.329,540.359 L 260.169,541 L 256.969,541 L 256.809,541.64 L 252.969,541.64 L 252.809,542.28 L 250.409,542.28 L 250.409,537.639 L 249.609,537.479 L 249.609,526.279 L 248.969,526.119 L 248.969,515.717 L 248.329,515.557 L 248.329,504.357 L 247.689,504.196 L 247.689,492.996 L 247.049,492.836 L 247.049,491.396 L 247.049,481.635 L 246.409,481.475 L 246.409,400.349 L 247.049,400.189 L 247.049,387.068 L 239.689,387.068 L 239.689,380.348 L 240.329,380.188 L 240.329,376.348 L 241.609,376.188 L 241.769,375.707 L 243.049,375.547 L 242.889,375.067 L 240.329,375.067 L 240.329,372.347 L 247.049,372.347 L 247.049,370.267 L 244.969,370.267 L 244.809,369.627 L 243.049,369.627 L 242.889,368.987 L 240.969,368.987 L 240.809,368.347 L 239.049,368.347 L 239.049,374.907 L 238.409,375.227 L 238.409,488.996 L 239.049,489.156 L 239.049,491.396 L 239.049,500.356 L 239.689,500.516 L 239.689,511.717 L 240.329,511.877 L 240.329,523.079 L 240.969,523.239 L 240.969,534.279 L 241.609,534.439 L 241.609,545 L 242.409,545.16 L 242.409,546.44 L 242.409,547.56 L 242.409,548.36 L 242.409,551.72 L 243.049,551.88 L 243.049,557 L 243.689,557.16 L 243.689,561.641 L 244.329,561.801 L 244.329,566.921 L 244.969,567.081 L 244.969,572.361 L 245.609,572.521 L 245.609,577.001 L 246.249,577.161 L 246.409,581.323 L 246.569,582.283 L 247.049,582.443 L 247.049,587.723 L 247.689,587.883 L 247.689,592.363 L 248.329,592.523 L 248.329,597.644 L 248.969,597.804 L 248.969,602.924 L 249.609,603.084 L 249.609,607.724 L 250.409,607.884 L 250.409,608.364 Z "/>
			<path id="dp_path004" fill="yellow" fill-rule="evenodd" stroke="none" stroke-width="0" d="M 373.775,520.357 L 375.695,520.357 L 375.855,519.717 L 377.615,519.717 L 377.775,519.077 L 379.695,519.077 L 379.855,518.277 L 382.255,518.277 L 382.415,517.637 L 384.335,517.637 L 384.495,516.997 L 386.255,516.997 L 386.415,516.357 L 388.975,516.357 L 389.135,515.717 L 391.055,515.717 L 391.215,515.077 L 392.975,515.077 L 393.135,514.277 L 395.055,514.277 L 395.215,513.637 L 397.615,513.637 L 397.775,512.997 L 399.695,512.997 L 399.855,512.357 L 401.615,512.357 L 401.775,511.717 L 403.695,511.717 L 403.855,511.077 L 406.256,511.077 L 406.416,510.277 L 408.336,510.277 L 408.496,509.637 L 410.416,509.637 L 410.416,508.997 L 412.976,508.997 L 413.136,508.357 L 415.056,508.357 L 415.216,507.717 L 416.976,507.717 L 417.136,507.077 L 419.056,507.077 L 419.216,506.277 L 420.976,506.277 L 421.136,505.637 L 423.056,505.637 L 423.216,504.997 L 424.336,504.837 L 424.496,504.357 L 426.256,504.357 L 426.416,503.716 L 428.336,503.716 L 428.496,503.076 L 430.256,503.076 L 430.416,502.276 L 431.696,502.116 L 431.856,501.636 L 433.616,501.636 L 433.776,500.996 L 435.696,500.996 L 435.856,500.356 L 437.616,500.356 L 437.776,499.716 L 439.056,499.556 L 439.216,499.076 L 440.977,499.076 L 441.137,498.276 L 443.057,498.276 L 443.217,497.636 L 444.977,497.636 L 445.137,496.996 L 446.417,496.836 L 446.417,496.356 L 448.337,496.356 L 448.497,495.716 L 450.257,495.716 L 450.417,495.076 L 452.337,495.076 L 452.497,494.276 L 453.617,494.116 L 453.777,493.636 L 455.697,493.636 L 455.857,492.996 L 457.617,492.996 L 457.777,492.356 L 459.697,492.356 L 459.857,491.716 L 460.977,491.556 L 459.697,491.396 L 460.977,491.396 L 461.137,491.076 L 463.057,491.076 L 463.217,490.276 L 464.977,490.276 L 465.137,489.636 L 467.057,489.636 L 467.217,488.996 L 468.977,488.996 L 469.137,488.356 L 470.257,488.196 L 470.417,487.716 L 472.337,487.716 L 472.497,487.076 L 474.257,487.076 L 474.417,486.276 L 476.339,486.276 L 476.499,485.635 L 477.619,485.475 L 477.459,484.995 L 476.979,484.835 L 476.819,484.355 L 475.697,484.195 L 475.537,483.715 L 475.057,483.555 L 475.057,481.635 L 474.257,481.475 L 474.257,479.075 L 473.617,478.595 L 473.457,478.275 L 472.337,478.275 L 472.177,478.915 L 470.257,479.075 L 470.097,479.715 L 468.337,479.715 L 468.177,480.355 L 466.257,480.355 L 466.097,480.995 L 464.337,480.995 L 464.177,481.635 L 462.257,481.635 L 462.097,482.275 L 460.977,482.435 L 460.817,483.075 L 459.057,483.075 L 458.897,483.715 L 456.977,483.715 L 456.817,484.355 L 455.057,484.355 L 454.897,484.995 L 453.617,485.155 L 453.457,485.635 L 451.697,485.635 L 451.537,486.276 L 449.617,486.276 L 449.457,486.916 L 447.697,487.076 L 447.537,487.716 L 446.257,487.876 L 446.097,488.356 L 444.337,488.356 L 444.177,488.996 L 442.257,488.996 L 442.097,489.636 L 440.336,489.636 L 440.176,490.276 L 439.056,490.436 L 438.896,490.916 L 437.136,491.076 L 437.136,491.396 L 436.976,491.396 L 436.816,491.716 L 435.056,491.716 L 434.896,492.356 L 433.616,492.516 L 433.456,492.996 L 431.696,492.996 L 431.536,493.636 L 429.616,493.636 L 429.456,494.276 L 427.696,494.276 L 427.536,495.076 L 426.256,495.236 L 426.096,495.716 L 424.336,495.716 L 424.176,496.356 L 422.256,496.356 L 422.096,496.996 L 419.696,496.996 L 419.536,496.356 L 419.056,496.196 L 419.056,494.276 L 418.256,494.116 L 418.256,492.356 L 417.616,492.196 L 417.456,491.396 L 417.616,491.396 L 417.456,491.076 L 416.976,490.756 L 416.976,488.996 L 416.336,488.836 L 416.336,487.076 L 415.696,486.916 L 415.696,484.995 L 415.056,484.835 L 415.056,483.075 L 414.256,482.915 L 414.256,480.995 L 413.616,480.835 L 413.616,479.075 L 412.976,478.915 L 412.976,476.995 L 412.336,476.835 L 412.336,475.075 L 411.696,474.915 L 411.536,473.635 L 411.056,473.475 L 411.056,471.715 L 410.416,471.555 L 410.256,469.795 L 409.616,469.475 L 409.616,467.715 L 408.976,467.555 L 408.976,465.633 L 408.336,465.473 L 408.336,463.713 L 407.696,463.553 L 407.696,461.633 L 407.056,461.473 L 407.056,459.713 L 406.256,459.553 L 406.256,457.633 L 405.616,457.473 L 405.456,456.353 L 404.975,456.193 L 404.975,454.273 L 404.335,454.113 L 404.335,452.353 L 403.695,452.193 L 403.695,450.273 L 403.055,450.113 L 403.055,448.352 L 402.255,448.192 L 402.255,446.272 L 401.615,446.112 L 401.615,444.352 L 400.975,444.192 L 400.975,442.272 L 400.335,442.112 L 400.335,440.352 L 399.695,440.192 L 399.695,438.272 L 399.055,438.112 L 398.895,436.992 L 398.415,436.832 L 398.095,434.912 L 397.615,434.912 L 397.615,432.992 L 396.975,432.832 L 396.975,431.072 L 396.335,430.912 L 396.335,428.991 L 395.695,428.831 L 395.695,427.071 L 395.055,426.911 L 395.055,424.351 L 394.255,424.191 L 394.255,422.271 L 393.615,422.111 L 393.615,419.711 L 392.975,419.551 L 392.975,417.631 L 392.335,417.471 L 392.335,415.071 L 391.695,414.911 L 391.695,412.991 L 391.055,412.831 L 391.055,408.349 L 390.255,408.189 L 390.255,405.789 L 390.255,402.269 L 389.615,402.109 L 389.615,396.349 L 388.975,396.189 L 388.975,390.268 L 388.335,390.108 L 388.335,384.348 L 387.695,384.188 L 387.695,378.268 L 387.055,378.108 L 387.055,366.267 L 386.255,366.107 L 386.255,364.987 L 386.255,337.624 L 386.255,336.184 L 386.255,334.424 L 386.415,333.624 L 387.055,333.464 L 387.055,327.544 L 387.055,296.981 L 387.695,296.821 L 387.695,264.979 L 393.615,264.979 L 393.775,265.619 L 405.616,265.619 L 405.776,266.26 L 418.256,266.26 L 418.416,267.06 L 427.696,267.06 L 427.536,266.26 L 419.056,266.26 L 419.056,264.339 L 418.096,264.339 L 417.616,264.499 L 417.456,264.979 L 416.976,265.139 L 416.816,265.619 L 411.056,265.619 L 410.896,264.979 L 410.256,264.819 L 410.096,264.339 L 409.616,264.179 L 409.456,263.059 L 408.976,262.739 L 409.136,261.619 L 409.616,261.459 L 409.616,257.619 L 401.615,257.619 L 401.455,256.979 L 389.615,256.979 L 389.455,256.339 L 388.335,256.179 L 388.335,251.059 L 388.975,250.899 L 388.975,242.417 L 389.615,242.097 L 389.615,232.977 L 390.255,232.817 L 390.255,224.656 L 390.415,223.696 L 391.055,223.536 L 391.055,214.416 L 391.695,214.256 L 391.695,205.615 L 392.335,205.455 L 392.335,196.335 L 392.975,196.175 L 392.975,187.053 L 393.615,186.893 L 393.615,182.253 L 409.616,182.253 L 409.776,181.613 L 472.337,181.613 L 472.497,180.973 L 479.059,180.973 L 479.219,180.333 L 486.419,180.333 L 486.419,179.693 L 493.619,179.693 L 493.779,179.053 L 500.979,179.053 L 501.139,178.253 L 508.339,178.253 L 508.499,177.613 L 515.7,177.613 L 515.86,176.973 L 522.26,176.973 L 522.42,176.333 L 530.26,176.333 L 530.42,175.693 L 540.34,175.693 L 540.5,175.053 L 560.981,175.053 L 561.141,175.693 L 563.701,175.693 L 563.861,176.333 L 567.061,176.333 L 567.221,176.973 L 568.981,176.973 L 569.141,177.613 L 570.261,177.773 L 570.421,178.253 L 571.061,178.413 L 571.221,179.053 L 572.341,179.213 L 572.501,179.693 L 572.981,179.853 L 573.141,180.333 L 574.261,180.493 L 574.421,180.973 L 574.901,181.133 L 575.221,182.253 L 575.701,182.413 L 575.861,183.053 L 576.341,183.213 L 576.501,184.333 L 576.981,184.493 L 577.141,185.613 L 577.621,185.773 L 577.621,187.693 L 578.261,187.853 L 578.421,188.973 L 579.061,189.133 L 579.061,192.975 L 579.701,193.135 L 579.701,196.335 L 580.341,196.495 L 580.341,266.26 L 567.701,266.26 L 567.541,265.619 L 554.261,265.619 L 554.101,264.979 L 541.62,264.979 L 541.46,264.339 L 528.5,264.339 L 528.18,263.699 L 515.22,263.699 L 514.9,263.059 L 512.34,263.059 L 512.5,263.699 L 512.98,263.859 L 512.98,265.619 L 512.34,265.779 L 512.18,266.26 L 511.06,266.42 L 511.06,271.06 L 507.699,271.06 L 507.539,270.26 L 507.059,270.1 L 506.899,269.62 L 506.259,269.78 L 506.099,270.26 L 499.699,270.26 L 499.699,262.259 L 495.699,262.259 L 495.859,263.059 L 496.339,263.219 L 496.499,263.699 L 496.979,263.859 L 496.979,266.26 L 496.339,266.42 L 496.339,269.62 L 491.379,269.62 L 491.539,270.26 L 492.979,270.26 L 493.619,270.42 L 493.779,271.06 L 506.259,271.06 L 506.419,271.7 L 519.7,271.7 L 519.86,272.34 L 532.34,272.34 L 532.5,272.98 L 545.62,272.98 L 545.78,273.62 L 559.061,273.62 L 559.061,274.26 L 571.701,274.26 L 571.861,275.06 L 580.981,275.06 L 581.141,276.34 L 581.623,276.5 L 581.623,279.7 L 582.263,279.86 L 582.263,283.06 L 583.063,283.22 L 583.063,286.261 L 583.703,286.421 L 583.703,289.621 L 584.343,289.781 L 584.343,292.981 L 584.983,293.141 L 584.983,296.341 L 585.623,296.501 L 585.623,299.061 L 586.263,299.221 L 586.263,302.261 L 587.063,302.421 L 587.063,305.623 L 587.703,305.783 L 587.703,308.983 L 588.343,309.143 L 588.343,312.343 L 588.983,312.503 L 588.983,315.703 L 589.623,315.863 L 589.623,319.063 L 590.263,319.223 L 590.263,321.624 L 590.903,321.784 L 591.063,324.824 L 591.703,325.144 L 591.703,327.544 L 591.863,328.344 L 592.343,328.504 L 592.343,331.704 L 592.983,331.864 L 592.983,335.064 L 593.623,335.224 L 593.623,338.264 L 594.263,338.424 L 594.263,340.985 L 594.903,341.145 L 595.063,344.345 L 595.703,344.505 L 595.703,347.705 L 596.343,347.865 L 596.343,351.065 L 596.983,351.225 L 596.983,354.265 L 597.623,354.425 L 597.623,357.627 L 598.263,357.787 L 598.263,360.987 L 599.063,361.147 L 599.063,363.707 L 599.703,363.867 L 599.703,367.067 L 600.343,367.227 L 600.343,370.267 L 600.983,370.427 L 600.983,372.987 L 601.623,373.147 L 601.623,375.707 L 602.263,375.868 L 602.263,379.068 L 603.063,379.228 L 603.063,381.628 L 603.703,381.788 L 603.703,384.348 L 604.343,384.508 L 604.343,387.708 L 604.983,387.868 L 604.983,390.268 L 605.623,390.428 L 605.623,392.988 L 606.263,393.148 L 606.263,396.349 L 607.063,396.509 L 607.063,399.069 L 607.703,399.229 L 607.703,402.269 L 608.343,402.429 L 608.343,404.989 L 608.983,405.149 L 608.983,407.709 L 609.623,407.869 L 609.623,411.069 L 610.263,411.229 L 610.263,413.631 L 611.063,413.791 L 611.063,416.351 L 611.703,416.511 L 611.703,419.711 L 612.343,419.871 L 612.343,428.351 L 611.703,428.511 L 611.543,429.631 L 611.063,429.791 L 611.063,431.712 L 610.263,431.872 L 610.103,432.992 L 609.623,433.152 L 609.463,433.632 L 608.983,433.792 L 608.823,435.072 L 608.343,435.072 L 608.183,435.712 L 607.703,435.872 L 607.543,436.992 L 607.063,437.152 L 606.903,437.632 L 606.263,437.792 L 606.103,438.272 L 605.623,438.432 L 605.463,439.072 L 604.343,439.232 L 604.183,439.712 L 603.063,439.872 L 602.903,440.352 L 601.623,440.512 L 601.463,440.992 L 600.983,441.152 L 600.823,441.632 L 599.703,441.792 L 599.543,442.272 L 596.983,442.272 L 596.823,443.072 L 593.623,443.072 L 593.463,443.712 L 590.263,443.712 L 590.103,444.352 L 587.063,444.352 L 586.903,444.992 L 583.703,444.992 L 583.543,445.632 L 580.341,445.632 L 580.181,446.272 L 576.341,446.272 L 576.181,447.072 L 572.981,447.072 L 572.981,450.273 L 572.341,450.433 L 572.341,451.233 L 572.341,454.273 L 572.981,454.433 L 573.141,455.713 L 575.701,455.713 L 575.861,455.073 L 579.061,455.073 L 579.221,454.273 L 583.063,454.273 L 583.223,453.633 L 586.263,453.633 L 586.423,452.993 L 589.623,452.993 L 589.783,452.353 L 592.983,452.353 L 593.143,451.713 L 596.343,451.713 L 596.503,451.073 L 599.703,451.073 L 599.863,450.273 L 602.263,450.273 L 602.423,449.633 L 603.063,449.473 L 603.223,448.992 L 604.343,448.832 L 604.503,448.352 L 605.623,448.192 L 605.783,447.712 L 607.063,447.552 L 607.223,447.072 L 608.343,446.912 L 608.503,446.272 L 609.623,446.112 L 609.783,445.632 L 610.263,445.472 L 610.423,444.992 L 611.703,444.832 L 611.863,444.352 L 612.343,444.192 L 612.503,443.712 L 612.983,443.552 L 613.143,442.272 L 613.623,442.112 L 613.783,441.632 L 614.263,441.472 L 614.423,440.352 L 615.063,440.192 L 615.223,439.712 L 615.703,439.552 L 615.863,438.272 L 616.343,438.112 L 616.503,437.632 L 616.984,437.472 L 617.144,436.352 L 617.624,436.192 L 617.784,435.072 L 618.264,434.912 L 618.424,433.632 L 619.064,433.472 L 619.224,432.352 L 619.704,432.192 L 619.704,430.271 L 620.344,430.111 L 620.344,428.351 L 620.984,428.191 L 620.984,419.711 L 620.344,419.551 L 620.344,416.991 L 619.704,416.831 L 619.704,414.271 L 619.064,414.111 L 619.064,411.069 L 618.264,410.909 L 618.264,408.349 L 617.624,408.189 L 617.624,405.629 L 616.984,405.469 L 616.984,402.269 L 616.343,402.109 L 616.343,399.709 L 615.703,399.549 L 615.703,396.989 L 615.063,396.829 L 615.063,393.628 L 614.263,393.468 L 614.263,391.068 L 613.623,390.908 L 613.623,388.348 L 612.983,388.188 L 612.983,384.988 L 612.343,384.828 L 612.343,382.268 L 611.703,382.108 L 611.703,379.708 L 611.063,379.548 L 611.063,376.348 L 610.263,376.188 L 610.263,373.627 L 609.623,373.467 L 609.623,370.267 L 608.983,370.107 L 608.983,367.707 L 608.343,367.547 L 608.343,364.987 L 607.703,364.827 L 607.703,361.627 L 607.063,361.467 L 607.063,358.267 L 606.263,358.107 L 606.263,355.065 L 605.623,354.905 L 605.623,351.705 L 604.983,351.545 L 604.983,348.345 L 604.343,348.185 L 604.343,344.985 L 603.703,344.825 L 603.703,342.265 L 603.063,342.105 L 603.063,339.064 L 602.423,338.904 L 602.263,335.864 L 601.623,335.544 L 601.623,332.344 L 600.983,332.184 L 600.983,328.984 L 600.343,328.824 L 600.183,327.544 L 600.343,327.544 L 600.343,325.624 L 599.703,325.464 L 599.703,322.264 L 599.063,322.104 L 599.063,319.703 L 598.263,319.543 L 598.263,316.343 L 597.623,316.183 L 597.623,312.983 L 596.983,312.823 L 596.983,309.623 L 596.343,309.463 L 596.343,306.263 L 595.703,306.103 L 595.703,303.063 L 595.063,302.903 L 595.063,299.701 L 594.263,299.541 L 594.263,296.981 L 593.623,296.821 L 593.623,293.621 L 592.983,293.461 L 592.983,290.261 L 592.343,290.101 L 592.343,287.061 L 591.703,286.901 L 591.703,283.7 L 591.063,283.54 L 591.063,280.34 L 590.263,280.18 L 590.263,276.98 L 589.623,276.82 L 589.623,274.26 L 588.983,274.1 L 588.983,269.62 L 588.343,269.46 L 588.343,193.615 L 587.703,193.455 L 587.703,189.613 L 587.063,189.453 L 587.063,186.253 L 586.263,186.093 L 586.103,184.973 L 585.623,184.813 L 585.463,183.693 L 584.983,183.533 L 584.823,182.253 L 584.343,182.093 L 584.183,180.973 L 583.703,180.813 L 583.543,179.693 L 583.063,179.533 L 582.903,178.253 L 582.263,178.093 L 582.103,177.613 L 581.623,177.453 L 581.463,176.333 L 580.981,176.173 L 580.821,175.693 L 580.341,175.533 L 580.181,175.053 L 579.701,174.893 L 579.541,174.253 L 579.061,174.093 L 578.901,173.612 L 577.621,173.452 L 577.461,172.972 L 576.981,172.812 L 576.821,172.332 L 575.701,172.172 L 575.541,171.692 L 575.061,171.532 L 574.901,171.052 L 573.781,170.892 L 573.461,170.252 L 572.981,170.092 L 572.821,169.612 L 571.701,169.452 L 571.541,168.972 L 569.621,168.972 L 569.461,168.332 L 566.261,168.332 L 566.101,167.692 L 563.701,167.692 L 563.541,167.052 L 560.341,167.052 L 560.181,166.252 L 543.7,166.252 L 543.54,167.052 L 533.62,167.052 L 533.46,167.692 L 527.06,167.692 L 526.9,168.332 L 525.62,168.492 L 525.46,168.972 L 515.7,168.972 L 515.54,169.612 L 503.059,169.612 L 502.899,170.252 L 496.339,170.252 L 496.179,170.892 L 493.139,171.052 L 488.979,171.052 L 488.819,171.692 L 481.619,171.692 L 481.459,172.332 L 474.257,172.332 L 474.097,172.972 L 426.256,172.972 L 426.096,173.612 L 394.415,173.612 L 394.255,170.572 L 394.255,164.332 L 394.095,163.692 L 393.775,163.692 L 394.255,163.532 L 394.095,163.052 L 393.615,163.052 L 393.775,163.692 L 393.615,163.692 L 393.615,168.332 L 392.975,168.492 L 392.975,175.053 L 392.335,175.213 L 392.175,175.693 L 391.695,175.853 L 391.855,176.333 L 392.335,176.493 L 392.335,183.693 L 384.975,183.693 L 384.975,190.253 L 384.335,190.413 L 384.335,199.055 L 383.695,199.215 L 383.695,208.335 L 383.055,208.495 L 383.055,217.616 L 382.255,217.776 L 382.255,227.056 L 381.615,227.216 L 381.615,236.337 L 380.975,236.497 L 380.975,244.977 L 380.335,245.137 L 380.335,254.259 L 379.695,254.419 L 379.695,272.34 L 379.055,272.5 L 379.055,308.663 L 378.895,308.983 L 378.255,309.143 L 378.255,327.544 L 378.255,345.625 L 377.615,345.785 L 377.615,361.627 L 378.255,361.787 L 378.255,376.348 L 379.055,376.508 L 379.055,382.268 L 379.695,382.428 L 379.695,388.348 L 380.335,388.508 L 380.335,394.269 L 380.975,394.429 L 380.975,400.349 L 381.615,400.509 L 381.615,406.269 L 382.255,406.429 L 382.255,412.349 L 383.055,412.509 L 383.055,415.071 L 383.695,415.231 L 383.695,416.991 L 384.335,417.151 L 384.335,419.711 L 384.975,419.871 L 384.975,422.271 L 385.615,422.431 L 385.615,424.351 L 386.255,424.511 L 386.255,427.071 L 387.055,427.231 L 387.055,428.991 L 387.695,429.151 L 387.695,431.072 L 388.335,431.232 L 388.335,432.992 L 388.975,433.152 L 388.975,435.072 L 389.615,435.232 L 389.615,436.992 L 390.255,437.152 L 390.255,439.072 L 391.055,439.232 L 391.055,440.992 L 391.695,441.152 L 391.695,443.072 L 392.335,443.232 L 392.335,444.992 L 392.975,445.152 L 392.975,447.072 L 393.615,447.232 L 393.775,448.352 L 394.255,448.512 L 394.255,450.273 L 395.055,450.433 L 395.055,452.353 L 395.695,452.513 L 395.695,454.273 L 396.335,454.433 L 396.335,456.353 L 396.975,456.513 L 396.975,458.273 L 397.615,458.433 L 397.615,460.353 L 398.255,460.513 L 398.255,462.273 L 399.055,462.433 L 399.055,464.353 L 399.695,464.513 L 399.855,465.633 L 400.335,465.793 L 400.335,467.715 L 400.975,467.875 L 400.975,469.635 L 401.615,469.795 L 401.615,471.715 L 402.255,471.875 L 402.255,473.635 L 403.055,473.795 L 403.055,475.715 L 403.695,475.875 L 403.695,477.635 L 404.335,477.795 L 404.335,479.715 L 404.975,479.875 L 404.975,481.635 L 405.616,481.795 L 405.776,483.075 L 406.256,483.235 L 406.256,484.995 L 407.056,485.155 L 407.056,487.076 L 407.696,487.236 L 407.696,488.996 L 408.336,489.156 L 408.336,491.076 L 408.976,491.236 L 410.256,491.396 L 408.976,491.396 L 408.976,492.996 L 409.616,493.156 L 409.616,495.076 L 410.256,495.236 L 410.256,496.996 L 411.056,497.156 L 411.056,499.076 L 411.696,499.236 L 411.536,500.356 L 410.256,500.516 L 410.096,500.996 L 408.336,500.996 L 408.176,501.636 L 406.256,501.636 L 406.096,502.276 L 403.695,502.276 L 403.535,503.076 L 401.615,503.076 L 401.455,503.716 L 399.695,503.716 L 399.535,504.357 L 397.615,504.357 L 397.455,504.997 L 395.055,504.997 L 394.895,505.637 L 392.975,505.637 L 392.815,506.277 L 391.055,506.277 L 390.895,506.917 L 388.975,507.077 L 388.815,507.557 L 386.255,507.717 L 386.095,508.357 L 384.335,508.357 L 384.175,508.997 L 382.255,508.997 L 382.095,509.637 L 379.695,509.637 L 379.535,510.277 L 377.615,510.277 L 377.455,511.077 L 375.695,511.077 L 375.535,511.717 L 373.615,511.717 L 373.455,512.357 L 371.055,512.357 L 371.215,513.637 L 371.695,513.797 L 371.695,515.557 L 371.055,515.877 L 370.895,516.357 L 370.255,516.517 L 370.255,518.277 L 371.055,518.437 L 371.055,520.997 L 373.615,520.997 Z M 491.219,269.62 L 490.259,269.46 L 490.099,268.98 L 489.619,268.98 L 489.459,269.62 L 480.339,269.62 L 480.499,270.26 L 491.379,270.26 Z "/>
			<path id="dp_path005" fill="none" fill-rule="evenodd" stroke="black" stroke-width="1.33333" d="M 240.8,153.333 C 240.885,153.509 241.115,153.421 241.067,153.864 C 240.716,153.868 241.32,153.867 241.32,153.867 C 241.351,154.201 241.324,154.481 241.333,154.624 C 242.327,157.995 240.66,160.897 241.067,164.524 C 241.165,164.537 241.313,164.533 241.313,164.533 C 241.36,165.156 241.32,165.556 241.333,166.133"/>
			<path id="dp_path006" fill="yellow" fill-rule="evenodd" stroke="none" stroke-width="0" d="M 242.249,364.347 L 240.329,364.347 L 240.329,360.987 L 244.969,360.987 L 244.809,360.347 L 240.329,360.347 L 240.329,356.985 L 243.689,356.985 L 243.529,356.345 L 240.969,356.345 L 240.809,355.705 L 240.329,355.545 L 240.329,352.985 L 240.969,352.825 L 240.809,352.345 L 240.329,352.185 L 240.329,342.265 L 240.969,342.105 L 241.129,341.625 L 244.329,341.625 L 244.489,342.265 L 244.969,342.105 L 245.129,341.625 L 246.409,341.785 L 246.569,342.265 L 247.689,342.265 L 247.529,340.985 L 240.329,340.985 L 240.329,337.624 L 240.969,337.464 L 240.969,332.984 L 241.609,332.824 L 241.769,332.344 L 242.409,332.184 L 242.569,331.704 L 245.609,331.704 L 245.449,331.064 L 240.969,331.064 L 240.969,327.704 L 247.689,327.704 L 239.689,327.544 L 247.689,327.544 L 247.849,327.064 L 248.329,326.904 L 248.329,324.984 L 240.969,324.984 L 240.969,322.264 L 248.329,322.264 L 248.329,288.501 L 248.969,288.181 L 248.969,251.059 L 249.609,250.899 L 249.609,213.616 L 250.409,213.456 L 250.409,176.973 L 251.049,176.813 L 251.049,164.972 L 252.329,165.132 L 252.489,165.612 L 257.609,165.612 L 257.769,166.252 L 262.569,166.252 L 263.049,166.412 L 263.209,167.052 L 268.331,167.052 L 268.491,167.692 L 274.251,167.692 L 274.411,168.332 L 279.691,168.332 L 279.851,168.972 L 284.971,168.972 L 285.131,169.612 L 290.251,169.612 L 290.411,170.252 L 294.891,170.252 L 295.691,170.412 L 295.851,171.052 L 300.972,171.052 L 301.132,171.692 L 306.252,171.692 L 306.572,172.332 L 312.332,172.332 L 312.492,172.972 L 317.612,172.972 L 317.772,173.612 L 322.892,173.612 L 323.212,174.253 L 327.532,174.253 L 328.332,174.413 L 328.492,175.053 L 333.612,175.053 L 333.772,175.693 L 339.053,175.693 L 339.213,176.333 L 344.973,176.333 L 345.133,176.973 L 350.253,176.973 L 350.413,177.613 L 355.693,177.613 L 355.853,178.253 L 360.973,178.253 L 361.133,179.053 L 366.253,179.053 L 366.413,179.693 L 371.695,179.693 L 371.855,180.333 L 376.975,180.333 L 377.135,180.973 L 383.055,180.973 L 383.055,176.333 L 383.695,176.173 L 383.855,175.693 L 385.615,175.693 L 385.455,175.053 L 384.975,174.733 L 384.975,172.972 L 380.975,172.972 L 380.815,172.332 L 375.695,172.332 L 375.535,171.692 L 370.255,171.692 L 370.095,171.052 L 365.133,171.052 L 364.813,170.252 L 359.053,170.252 L 358.893,169.612 L 353.613,169.612 L 353.453,168.972 L 348.333,168.972 L 348.173,168.332 L 343.053,168.332 L 342.893,167.692 L 337.613,167.692 L 337.453,167.052 L 332.332,167.052 L 332.172,166.252 L 327.532,166.252 L 326.412,166.092 L 326.252,165.612 L 320.972,165.612 L 320.812,164.972 L 315.692,164.972 L 315.532,164.332 L 310.412,164.332 L 310.252,163.692 L 304.972,163.692 L 304.812,163.052 L 299.692,163.052 L 299.532,162.412 L 294.411,162.412 L 294.251,161.612 L 288.331,161.612 L 288.171,160.972 L 283.051,160.972 L 282.891,160.332 L 277.611,160.332 L 277.451,159.692 L 272.331,159.692 L 272.171,159.052 L 267.051,159.052 L 266.891,158.412 L 262.249,158.412 L 261.609,158.252 L 261.449,157.612 L 256.329,157.612 L 256.169,156.972 L 251.049,156.972 L 251.049,152.331 L 242.409,152.331 L 242.409,158.252 L 241.769,163.372 L 241.929,163.692 L 241.769,163.692 L 242.089,164.012 L 242.249,164.332 L 242.409,165.612 L 242.409,184.173 L 242.409,184.973 L 242.409,186.413 L 242.409,187.533 L 242.249,188.333 L 241.609,188.493 L 241.609,225.616 L 240.969,225.776 L 240.969,262.899 L 240.329,263.219 L 240.329,300.341 L 239.689,300.501 L 239.689,327.544 L 239.689,337.464 L 239.049,337.784 L 239.049,363.707 L 239.689,363.867 L 239.849,364.987 L 242.409,364.987 Z "/>
			<path id="dp_path007" fill="none" fill-rule="evenodd" stroke="black" stroke-width="1.33333" d="M 102.187,40.16 L 100.853,62.8267"/>
			<path id="dp_path008" fill="none" fill-rule="evenodd" stroke="black" stroke-width="1.33333" d="M 239.667,47.6667 L 252,49"/>
			<path id="dp_path009" fill="none" fill-rule="evenodd" stroke="black" stroke-width="1.33333" d="M 390.667,55.6667 L 402,55"/>
			<path id="dp_path010" fill="none" fill-rule="evenodd" stroke="black" stroke-width="1.33333" d="M 606,44.6667 L 609.333,87.6667"/>
			<path id="dp_path011" fill="yellow" fill-rule="evenodd" stroke="none" stroke-width="0" d="M 521.14,87.4067 L 518.26,87.2467 L 518.26,85.3267 L 512.5,85.3267 L 512.34,84.3667 L 512.5,81.3253 L 518.26,81.3253 L 518.26,79.4053 L 521.46,79.4053 L 521.62,79.8853 L 522.9,80.0453 L 523.06,80.5253 L 523.54,80.6853 L 523.7,81.1653 L 524.82,81.3253 L 524.98,81.8053 L 526.26,81.9653 L 526.26,84.5267 L 525.14,84.6867 L 524.98,85.1667 L 524.5,85.3267 L 524.34,85.8067 L 523.22,85.9667 L 523.06,86.4467 L 521.78,86.6067 L 521.62,87.2467 Z M 404.975,77.9653 L 400.335,77.9653 L 400.335,76.0453 L 420.176,76.0453 L 420.336,77.3253 L 405.135,77.3253 Z M 582.263,84.0467 L 579.701,84.0467 L 579.701,81.9653 L 573.781,81.9653 L 573.621,81.0053 L 573.781,77.9653 L 579.701,77.9653 L 579.701,76.2053 L 580.181,76.0453 L 580.341,75.4053 L 582.743,75.4053 L 583.063,75.8853 L 584.183,76.0453 L 584.343,76.5253 L 584.823,76.6853 L 584.983,77.1653 L 586.103,77.3253 L 586.263,77.9653 L 587.703,77.9653 L 587.703,80.5253 L 586.423,80.6853 L 586.263,81.1653 L 585.783,81.3253 L 585.623,81.8053 L 584.503,81.9653 L 584.343,82.4453 L 583.223,82.6053 L 583.063,83.2453 L 582.423,83.4067 Z M 435.696,76.6853 L 421.136,76.6853 L 420.976,75.4053 L 435.536,75.4053 Z M 450.257,76.0453 L 441.617,76.0453 L 441.617,74.6053 L 450.257,74.6053 Z M 494.099,74.6053 L 481.619,74.6053 L 481.779,73.3253 L 494.259,73.3253 Z M 329.132,73.9653 L 323.692,73.9653 L 323.532,73.3253 L 323.052,73.1653 L 322.892,72.6853 L 322.412,72.5253 L 322.412,70.6053 L 321.612,70.7653 L 321.612,72.6853 L 320.972,72.8453 L 320.812,73.3253 L 316.972,73.3253 L 316.972,69.9653 L 316.332,70.1253 L 316.332,72.6853 L 312.972,72.6853 L 312.972,70.6053 L 312.332,70.4453 L 312.172,69.9653 L 311.692,69.8053 L 311.532,69.3253 L 311.052,69.4853 L 310.892,69.9653 L 310.412,70.1253 L 310.412,71.7253 L 310.092,72.0453 L 306.412,72.0453 L 306.412,70.6053 L 307.052,70.4453 L 307.052,67.4053 L 307.692,67.2453 L 307.852,66.6053 L 308.332,66.4453 L 308.492,65.3253 L 308.972,65.1653 L 308.972,63.404 L 309.612,63.244 L 309.772,61.964 L 310.412,61.804 L 310.572,60.684 L 312.972,60.684 L 313.132,61.324 L 314.412,61.484 L 314.572,61.964 L 315.052,62.124 L 315.052,64.044 L 315.692,64.204 L 315.692,68.0453 L 316.332,67.8853 L 316.332,64.684 L 319.692,64.684 L 319.852,65.3253 L 320.332,65.1653 L 320.492,64.684 L 323.692,64.684 L 323.852,65.9653 L 324.332,65.8053 L 324.492,65.3253 L 327.532,65.3253 L 327.852,65.9653 L 330.252,65.9653 L 330.572,66.6053 L 331.052,66.7653 L 331.052,71.4053 L 331.052,72.5253 L 330.412,72.8453 L 330.412,73.8053 Z M 396.975,123.889 L 396.975,111.408 L 397.615,111.248 L 397.615,97.9667 L 398.255,97.8067 L 398.255,96.8467 L 399.535,96.6867 L 412.336,96.6867 L 412.496,96.0467 L 427.696,96.0467 L 427.856,95.4067 L 442.417,95.4067 L 442.417,94.6067 L 457.617,94.6067 L 457.777,93.9667 L 479.699,93.9667 L 479.859,93.3267 L 506.259,93.3267 L 506.419,92.6867 L 532.98,92.6867 L 533.14,92.0467 L 555.061,92.0467 L 555.221,91.4067 L 564.981,91.4067 L 565.141,90.6067 L 574.261,90.6067 L 574.421,89.9667 L 582.263,89.9667 L 582.423,89.3267 L 588.983,89.3267 L 589.143,88.6867 L 595.703,88.6867 L 595.863,88.0467 L 602.263,88.0467 L 602.423,87.4067 L 608.503,87.4067 L 608.503,85.6467 L 607.063,68.0453 L 605.623,68.0453 L 605.463,68.6853 L 599.063,68.6853 L 598.903,69.3253 L 592.343,69.3253 L 592.183,69.9653 L 585.623,69.9653 L 585.463,70.6053 L 579.061,70.6053 L 578.901,71.4053 L 570.261,71.4053 L 570.101,72.0453 L 560.341,72.0453 L 560.181,72.6853 L 547.701,72.6853 L 547.541,73.3253 L 520.98,73.3253 L 520.82,73.9653 L 500.339,73.9653 L 500.499,72.6853 L 519.06,72.6853 L 519.22,72.0453 L 538.26,72.0453 L 538.42,71.4053 L 554.261,71.4053 L 554.421,70.6053 L 563.701,70.6053 L 563.861,69.9653 L 572.981,69.9653 L 573.141,69.3253 L 580.981,69.3253 L 581.141,68.6853 L 587.703,68.6853 L 587.863,68.0453 L 593.623,68.0453 L 593.783,67.4053 L 600.343,67.4053 L 600.503,66.6053 L 606.903,66.6053 L 606.903,65.004 L 605.463,47.404 L 603.703,47.404 L 603.543,48.044 L 596.983,48.044 L 596.823,48.684 L 590.263,48.684 L 590.103,49.324 L 584.343,49.324 L 584.183,49.964 L 577.621,49.964 L 577.461,50.604 L 568.981,50.604 L 568.821,51.244 L 565.781,51.404 L 559.061,51.404 L 558.901,52.044 L 548.341,52.044 L 548.181,52.684 L 529.62,52.684 L 529.46,53.324 L 511.06,53.324 L 510.899,53.964 L 492.339,53.964 L 492.179,54.604 L 491.379,54.764 L 491.379,54.604 L 472.977,54.604 L 472.817,55.404 L 453.617,55.404 L 453.457,56.044 L 436.336,56.044 L 436.336,65.9653 L 423.696,65.9653 L 423.536,65.3253 L 423.056,65.1653 L 423.056,56.684 L 411.696,56.684 L 411.536,57.324 L 400.335,57.324 L 400.335,55.884 L 398.415,55.884 L 391.695,56.364 L 391.695,57.964 L 391.055,58.124 L 390.895,58.604 L 388.975,58.604 L 388.815,59.244 L 386.255,59.404 L 386.095,60.044 L 384.335,60.044 L 384.175,60.684 L 381.615,60.684 L 381.455,61.324 L 379.695,61.324 L 379.535,61.964 L 376.975,61.964 L 376.815,62.604 L 375.055,62.604 L 374.895,63.244 L 372.335,63.404 L 372.175,64.044 L 370.255,64.044 L 370.095,64.684 L 367.693,64.684 L 367.533,65.3253 L 364.333,65.3253 L 364.173,64.684 L 359.053,64.684 L 358.893,64.044 L 353.613,64.044 L 353.453,63.404 L 348.653,63.404 L 348.333,63.084 L 348.173,62.604 L 342.413,62.604 L 342.253,61.964 L 336.973,61.964 L 336.813,61.324 L 331.692,61.324 L 331.532,60.684 L 327.532,60.684 L 326.412,60.524 L 326.252,60.044 L 320.972,60.044 L 320.812,59.404 L 316.012,59.404 L 315.692,59.084 L 315.532,58.604 L 310.412,58.604 L 310.252,57.964 L 304.332,57.964 L 304.172,57.324 L 299.051,57.324 L 298.891,56.684 L 293.771,56.684 L 293.451,56.044 L 288.331,56.044 L 288.171,55.404 L 283.051,55.404 L 282.891,54.604 L 277.611,54.604 L 277.451,53.964 L 272.331,53.964 L 272.171,53.324 L 266.411,53.324 L 266.251,52.684 L 260.969,52.684 L 260.809,52.044 L 255.689,52.044 L 255.529,51.404 L 250.729,51.404 L 250.409,51.244 L 250.249,49.484 L 241.609,48.684 L 241.449,49.964 L 232.329,49.964 L 232.169,49.324 L 221.608,49.324 L 221.448,48.684 L 210.408,48.684 L 210.248,48.044 L 199.688,48.044 L 199.528,47.404 L 188.967,47.404 L 188.807,46.6027 L 177.607,46.6027 L 177.447,45.9627 L 167.047,45.9627 L 166.887,45.3227 L 155.685,45.3227 L 155.525,44.6827 L 145.125,44.6827 L 144.805,44.0427 L 134.405,44.0427 L 134.245,43.4027 L 132.965,43.5627 L 132.965,50.604 L 120.324,50.604 L 120.164,49.964 L 119.684,49.804 L 119.684,42.6027 L 112.324,42.6027 L 112.164,41.9627 L 102.884,41.9627 L 101.764,60.524 L 103.044,60.684 L 107.684,60.684 L 107.844,61.324 L 118.404,61.324 L 118.404,61.964 L 128.965,61.964 L 129.125,62.604 L 140.325,62.604 L 140.485,63.404 L 151.045,63.404 L 151.205,64.044 L 162.247,64.044 L 162.407,64.684 L 163.687,64.524 L 163.687,64.684 L 172.967,64.684 L 173.127,65.3253 L 183.687,65.3253 L 183.847,65.9653 L 195.048,65.9653 L 195.208,66.6053 L 205.608,66.6053 L 205.768,67.4053 L 216.328,67.4053 L 216.488,68.0453 L 227.528,68.0453 L 227.848,68.6853 L 238.409,68.6853 L 238.409,69.3253 L 241.609,69.3253 L 241.609,93.9667 L 249.609,93.9667 L 249.609,91.4067 L 242.409,91.4067 L 242.409,88.6867 L 249.609,88.6867 L 249.609,85.9667 L 250.409,85.8067 L 250.409,69.9653 L 252.969,69.9653 L 253.129,70.6053 L 258.249,70.6053 L 258.409,71.4053 L 263.689,71.4053 L 263.849,72.0453 L 268.971,72.0453 L 269.131,72.6853 L 274.411,72.6853 L 274.411,73.3253 L 279.691,73.3253 L 279.851,73.9653 L 284.971,73.9653 L 285.131,74.6053 L 291.051,74.6053 L 291.211,75.4053 L 296.331,75.4053 L 296.491,76.0453 L 301.612,76.0453 L 301.772,76.6853 L 307.052,76.6853 L 307.212,77.3253 L 312.332,77.3253 L 312.492,77.9653 L 317.612,77.9653 L 317.772,78.6053 L 323.052,78.6053 L 323.212,79.4053 L 328.972,79.4053 L 329.132,80.0453 L 334.252,80.0453 L 334.412,80.6853 L 339.693,80.6853 L 339.853,81.3253 L 344.973,81.3253 L 345.133,81.9653 L 350.253,81.9653 L 350.413,82.6053 L 355.693,82.6053 L 355.853,83.4067 L 360.973,83.4067 L 361.133,84.0467 L 364.973,84.0467 L 365.133,84.6867 L 367.053,84.6867 L 367.213,85.3267 L 368.333,85.4867 L 368.493,85.9667 L 369.613,86.1267 L 369.773,86.6067 L 371.055,86.7667 L 371.215,87.4067 L 372.335,87.5667 L 372.495,88.0467 L 373.615,88.2067 L 373.775,88.6867 L 375.055,88.8467 L 375.215,89.3267 L 376.975,89.3267 L 377.135,89.9667 L 378.255,90.1267 L 378.415,90.6067 L 379.695,90.7667 L 379.855,91.4067 L 380.975,91.5667 L 381.135,92.0467 L 382.255,92.2067 L 382.415,92.6867 L 383.695,92.8467 L 383.855,93.3267 L 384.975,93.4867 L 385.135,93.9667 L 386.255,94.1267 L 386.415,94.6067 L 387.695,94.7667 L 387.855,95.4067 L 389.615,95.4067 L 389.615,102.608 L 388.975,102.768 L 388.975,113.328 L 391.055,113.328 L 391.215,113.968 L 396.335,113.968 L 396.335,117.328 L 395.695,117.488 L 395.855,117.968 L 396.335,118.128 L 396.335,124.049 Z M 303.692,70.6053 L 299.852,70.6053 L 299.692,69.9653 L 288.491,69.9653 L 288.331,69.4853 L 287.851,69.3253 L 287.691,68.8453 L 287.211,68.6853 L 287.051,69.3253 L 283.851,69.3253 L 283.691,68.6853 L 280.651,68.6853 L 280.331,68.2053 L 279.851,68.0453 L 279.691,66.7653 L 279.051,66.6053 L 279.051,60.844 L 279.691,60.684 L 279.691,58.764 L 280.171,58.604 L 280.331,58.124 L 281.451,57.964 L 281.611,57.324 L 284.811,57.324 L 284.971,57.964 L 287.531,57.964 L 287.691,58.444 L 288.171,58.604 L 288.331,59.244 L 288.811,59.404 L 288.971,60.524 L 289.451,60.684 L 289.611,61.324 L 295.531,61.324 L 295.691,61.804 L 296.171,61.964 L 296.331,63.244 L 296.971,63.404 L 296.971,58.604 L 300.972,58.604 L 300.972,61.964 L 304.332,61.964 L 304.332,64.524 L 303.212,64.684 L 303.052,65.1653 L 302.572,65.3253 L 302.412,65.8053 L 302.892,65.9653 L 303.052,67.2453 L 303.692,67.4053 Z M 273.611,67.4053 L 270.571,67.4053 L 270.411,66.6053 L 263.209,66.6053 L 263.049,66.1253 L 262.569,65.9653 L 262.409,64.844 L 261.769,64.684 L 261.609,65.1653 L 261.129,65.3253 L 260.969,65.9653 L 257.769,65.9653 L 257.609,65.3253 L 252.969,65.3253 L 252.969,62.764 L 253.609,62.604 L 253.609,58.124 L 254.409,57.964 L 254.409,53.964 L 259.529,53.964 L 259.689,54.604 L 262.249,54.604 L 262.409,55.244 L 262.889,55.404 L 263.049,56.524 L 263.529,56.684 L 263.689,57.964 L 266.411,58.124 L 266.411,61.804 L 267.051,61.964 L 267.051,57.964 L 270.891,57.964 L 271.051,58.604 L 276.331,58.604 L 276.331,61.804 L 275.211,61.964 L 275.051,62.444 L 274.411,62.604 L 274.411,64.684 L 274.411,66.4453 L 273.771,66.6053 Z "/>
		</g>
	</g>
</svg>